<svg width="53" height="52" viewBox="0 0 53 52" fill="none" xmlns="http://www.w3.org/2000/svg">
<path d="M49.5107 1H2.63574C1.7728 1 1.07324 1.69956 1.07324 2.5625V49.4375C1.07324 50.3004 1.7728 51 2.63574 51H49.5107C50.3737 51 51.0732 50.3004 51.0732 49.4375V2.5625C51.0732 1.69956 50.3737 1 49.5107 1Z" stroke="#BFD2F8" stroke-width="2" stroke-linecap="round" stroke-linejoin="round"/>
<path d="M16.0731 16H6.07315V26H16.0731V16Z" stroke="#BFD2F8" stroke-width="2" stroke-linecap="round" stroke-linejoin="round"/>
<path d="M26.073 16H16.073V26H26.073V16Z" stroke="#BFD2F8" stroke-width="2" stroke-linecap="round" stroke-linejoin="round"/>
<path d="M36.0732 16H26.0732V26H36.0732V16Z" stroke="#BFD2F8" stroke-width="2" stroke-linecap="round" stroke-linejoin="round"/>
<path d="M46.0735 16H36.0735V26H46.0735V16Z" stroke="#BFD2F8" stroke-width="2" stroke-linecap="round" stroke-linejoin="round"/>
<path d="M46.0735 26H36.0735V36H46.0735V26Z" stroke="#BFD2F8" stroke-width="2" stroke-linecap="round" stroke-linejoin="round"/>
<path d="M36.0732 26H26.0732V36H36.0732V26Z" stroke="#BFD2F8" stroke-width="2" stroke-linecap="round" stroke-linejoin="round"/>
<path d="M26.073 26H16.073V36H26.073V26Z" stroke="#BFD2F8" stroke-width="2" stroke-linecap="round" stroke-linejoin="round"/>
<path d="M16.0731 26H6.07315V36H16.0731V26Z" stroke="#BFD2F8" stroke-width="2" stroke-linecap="round" stroke-linejoin="round"/>
<path d="M16.0731 36H6.07315V46H16.0731V36Z" stroke="#BFD2F8" stroke-width="2" stroke-linecap="round" stroke-linejoin="round"/>
<path d="M26.073 36H16.073V46H26.073V36Z" stroke="#BFD2F8" stroke-width="2" stroke-linecap="round" stroke-linejoin="round"/>
<path d="M36.0732 36H26.0732V46H36.0732V36Z" stroke="#BFD2F8" stroke-width="2" stroke-linecap="round" stroke-linejoin="round"/>
<path fill-rule="evenodd" clip-rule="evenodd" d="M11.0735 1H16.0735V3.5C16.0735 4.88071 14.9514 6 13.5735 6C12.1928 6 11.0735 4.8779 11.0735 3.5V1Z" stroke="#BFD2F8" stroke-width="2" stroke-linecap="round" stroke-linejoin="round"/>
<path fill-rule="evenodd" clip-rule="evenodd" d="M36.0735 1H41.0735V3.5C41.0735 4.88071 39.9514 6 38.5735 6C37.1928 6 36.0735 4.8779 36.0735 3.5V1Z" stroke="#BFD2F8" stroke-width="2" stroke-linecap="round" stroke-linejoin="round"/>
</svg>
