<svg width="53" height="40" viewBox="0 0 53 40" fill="none" xmlns="http://www.w3.org/2000/svg">
<path d="M51.6527 1.77087H1.65271V31.7709H51.6527V1.77087Z" stroke="#FCFEFE" stroke-width="2" stroke-linecap="round" stroke-linejoin="round"/>
<path d="M49.5694 31.9792H3.73605V35.1042H49.5694V31.9792Z" stroke="#FCFEFE" stroke-width="2" stroke-linecap="round" stroke-linejoin="round"/>
<path d="M47.486 35.1042H5.81937V38.2292H47.486V35.1042Z" stroke="#FCFEFE" stroke-width="2" stroke-linecap="round" stroke-linejoin="round"/>
<path d="M26.4016 28.0594C30.8415 28.0594 34.4408 23.1072 34.4408 16.9984C34.4408 10.8897 30.8415 5.9375 26.4016 5.9375C21.9616 5.9375 18.3624 10.8897 18.3624 16.9984C18.3624 23.1072 21.9616 28.0594 26.4016 28.0594Z" stroke="#FCFEFE" stroke-width="2" stroke-linecap="round" stroke-linejoin="round"/>
<path fill-rule="evenodd" clip-rule="evenodd" d="M10.6371 28.0594H42.6683C42.6683 25.005 45.0585 22.5289 48.0069 22.5289V11.468C45.0585 11.468 42.6683 8.9919 42.6683 5.9375H10.6371C10.6371 8.9919 8.24695 11.468 5.29855 11.468V22.5289C8.24695 22.5289 10.6371 25.005 10.6371 28.0594Z" stroke="#FCFEFE" stroke-width="2" stroke-linecap="round" stroke-linejoin="round"/>
<path d="M12.8354 18.5786C13.6679 18.5786 14.3428 17.8712 14.3428 16.9985C14.3428 16.1258 13.6679 15.4183 12.8354 15.4183C12.0029 15.4183 11.3281 16.1258 11.3281 16.9985C11.3281 17.8712 12.0029 18.5786 12.8354 18.5786Z" stroke="#FCFEFE" stroke-width="2" stroke-linecap="round" stroke-linejoin="round"/>
<path d="M39.4653 18.5786C40.2978 18.5786 40.9727 17.8712 40.9727 16.9985C40.9727 16.1258 40.2978 15.4183 39.4653 15.4183C38.6328 15.4183 37.9579 16.1258 37.9579 16.9985C37.9579 17.8712 38.6328 18.5786 39.4653 18.5786Z" stroke="#FCFEFE" stroke-width="2" stroke-linecap="round" stroke-linejoin="round"/>
</svg>
