<svg width="72" height="72" viewBox="0 0 72 72" fill="none" xmlns="http://www.w3.org/2000/svg">
<path d="M0 36C0 16.1178 16.1178 0 36 0C55.8823 0 72 16.1178 72 36C72 55.8823 55.8823 72 36 72C16.1178 72 0 55.8823 0 36Z" fill="#5FA0D8"/>
<g clip-path="url(#clip0_470_194)">
<g clip-path="url(#clip1_470_194)">
<path d="M35.4909 24.2182C28.5159 18.1176 19.6473 23.4778 19.5018 30.7444C19.4648 32.5964 19.9994 34.4003 21.0635 36.0633H27.9607L29.1875 34.0186C29.5437 33.425 30.4058 33.4059 30.7822 33.9977L33.3705 38.0651L37.1436 30.1C37.4726 29.405 38.4532 29.3829 38.8161 30.0569L42.0504 36.0633H49.9184C55.7468 26.954 44.2279 16.5766 35.4909 24.2182Z" fill="white"/>
<path d="M40.6651 37.4451L38.0443 32.5779L34.3383 40.4017C34.023 41.0674 33.0956 41.1252 32.7002 40.5037L30.0148 36.2838L29.2953 37.483C29.1259 37.7654 28.8208 37.9381 28.4915 37.9381H22.5464C22.7328 38.1331 21.7395 37.1419 34.8297 50.1643C35.1953 50.5281 35.7863 50.5281 36.152 50.1643C49.0408 37.3423 48.2493 38.1328 48.4353 37.9381H41.4905C41.1456 37.9382 40.8286 37.7488 40.6651 37.4451Z" fill="white"/>
</g>
</g>
<defs>
<clipPath id="clip0_470_194">
<rect width="32" height="32" fill="white" transform="translate(19.5 20)"/>
</clipPath>
<clipPath id="clip1_470_194">
<rect width="32" height="32" fill="white" transform="translate(19.5 20)"/>
</clipPath>
</defs>
</svg>
