<svg width="489" height="549" viewBox="0 0 489 549" fill="none" xmlns="http://www.w3.org/2000/svg">
<circle cx="2.85781" cy="502.974" r="2.85781" fill="#23A6F0"/>
<circle cx="2.85781" cy="531.552" r="2.85781" fill="#23A6F0"/>
<circle cx="2.85781" cy="517.263" r="2.85781" fill="#23A6F0"/>
<circle cx="2.85781" cy="545.841" r="2.85781" fill="#23A6F0"/>
<circle cx="60.0142" cy="502.974" r="2.85781" fill="#23A6F0"/>
<circle cx="60.0142" cy="531.552" r="2.85781" fill="#23A6F0"/>
<circle cx="60.0142" cy="517.263" r="2.85781" fill="#23A6F0"/>
<circle cx="60.0142" cy="545.841" r="2.85781" fill="#23A6F0"/>
<circle cx="31.4361" cy="502.974" r="2.85781" fill="#23A6F0"/>
<circle cx="31.4361" cy="531.552" r="2.85781" fill="#23A6F0"/>
<circle cx="31.4361" cy="517.263" r="2.85781" fill="#23A6F0"/>
<circle cx="31.4361" cy="545.841" r="2.85781" fill="#23A6F0"/>
<circle cx="88.5924" cy="502.974" r="2.85781" fill="#23A6F0"/>
<circle cx="117.17" cy="502.974" r="2.85781" fill="#23A6F0"/>
<circle cx="88.5924" cy="531.552" r="2.85781" fill="#23A6F0"/>
<circle cx="117.17" cy="531.552" r="2.85781" fill="#23A6F0"/>
<circle cx="88.5924" cy="517.263" r="2.85781" fill="#23A6F0"/>
<circle cx="117.17" cy="517.263" r="2.85781" fill="#23A6F0"/>
<circle cx="88.5924" cy="545.841" r="2.85781" fill="#23A6F0"/>
<circle cx="117.17" cy="545.841" r="2.85781" fill="#23A6F0"/>
<circle cx="17.1469" cy="502.974" r="2.85781" fill="#23A6F0"/>
<circle cx="17.1469" cy="531.552" r="2.85781" fill="#23A6F0"/>
<circle cx="17.1469" cy="517.263" r="2.85781" fill="#23A6F0"/>
<circle cx="17.1469" cy="545.841" r="2.85781" fill="#23A6F0"/>
<circle cx="74.3033" cy="502.974" r="2.85781" fill="#23A6F0"/>
<circle cx="74.3033" cy="531.552" r="2.85781" fill="#23A6F0"/>
<circle cx="74.3033" cy="517.263" r="2.85781" fill="#23A6F0"/>
<circle cx="74.3033" cy="545.841" r="2.85781" fill="#23A6F0"/>
<circle cx="45.7252" cy="502.974" r="2.85781" fill="#23A6F0"/>
<circle cx="45.7252" cy="531.552" r="2.85781" fill="#23A6F0"/>
<circle cx="45.7252" cy="517.263" r="2.85781" fill="#23A6F0"/>
<circle cx="45.7252" cy="545.841" r="2.85781" fill="#23A6F0"/>
<circle cx="102.881" cy="502.974" r="2.85781" fill="#23A6F0"/>
<circle cx="131.459" cy="502.974" r="2.85781" fill="#23A6F0"/>
<circle cx="102.881" cy="531.552" r="2.85781" fill="#23A6F0"/>
<circle cx="131.459" cy="531.552" r="2.85781" fill="#23A6F0"/>
<circle cx="102.881" cy="517.263" r="2.85781" fill="#23A6F0"/>
<circle cx="131.459" cy="517.263" r="2.85781" fill="#23A6F0"/>
<circle cx="102.881" cy="545.841" r="2.85781" fill="#23A6F0"/>
<circle cx="131.459" cy="545.841" r="2.85781" fill="#23A6F0"/>
<circle cx="2.13538" cy="2.13538" r="2.13538" transform="matrix(1 0 0 -1 452.665 74.0264)" fill="#23A6F0"/>
<circle cx="2.84717" cy="2.84717" r="2.84717" transform="matrix(1 0 0 -1 456.936 79.7207)" fill="#23A6F0"/>
<circle cx="3.55896" cy="3.55896" r="3.55896" transform="matrix(1 0 0 -1 462.63 86.8386)" fill="#23A6F0"/>
<circle cx="4.27075" cy="4.27075" r="4.27075" transform="matrix(1 0 0 -1 469.748 95.3801)" fill="#23A6F0"/>
<circle cx="453.377" cy="38.7611" r="2.13538" fill="#23A6F0"/>
<circle cx="458.359" cy="33.7786" r="2.84717" fill="#23A6F0"/>
<circle cx="464.765" cy="27.3724" r="3.55896" fill="#23A6F0"/>
<circle cx="472.595" cy="19.5427" r="4.27075" fill="#23A6F0"/>
<circle cx="413.516" cy="71.891" r="2.13538" transform="rotate(180 413.516 71.891)" fill="#23A6F0"/>
<circle cx="408.534" cy="76.8735" r="2.84717" transform="rotate(180 408.534 76.8735)" fill="#23A6F0"/>
<circle cx="402.128" cy="83.2797" r="3.55896" transform="rotate(180 402.128 83.2797)" fill="#23A6F0"/>
<circle cx="394.298" cy="91.1094" r="4.27075" transform="rotate(180 394.298 91.1094)" fill="#23A6F0"/>
<circle cx="2.13538" cy="2.13538" r="2.13538" transform="matrix(-1 0 0 1 414.228 36.6257)" fill="#23A6F0"/>
<circle cx="2.84717" cy="2.84717" r="2.84717" transform="matrix(-1 0 0 1 409.958 30.9314)" fill="#23A6F0"/>
<circle cx="3.55896" cy="3.55896" r="3.55896" transform="matrix(-1 0 0 1 404.263 23.8135)" fill="#23A6F0"/>
<circle cx="4.27075" cy="4.27075" r="4.27075" transform="matrix(-1 0 0 1 397.145 15.272)" fill="#23A6F0"/>
<circle cx="455.467" cy="55.1322" r="2.13538" transform="rotate(45 455.467 55.1322)" fill="#23A6F0"/>
<circle cx="462.513" cy="55.1322" r="2.84717" transform="rotate(45 462.513 55.1322)" fill="#23A6F0"/>
<circle cx="471.573" cy="55.1323" r="3.55896" transform="rotate(45 471.573 55.1323)" fill="#23A6F0"/>
<circle cx="482.646" cy="55.1323" r="4.27075" transform="rotate(45 482.646 55.1323)" fill="#23A6F0"/>
<circle cx="2.13538" cy="2.13538" r="2.13538" transform="matrix(-0.707107 0.707107 0.707107 0.707107 407.592 52.1125)" fill="#23A6F0"/>
<circle cx="2.84717" cy="2.84717" r="2.84717" transform="matrix(-0.707107 0.707107 0.707107 0.707107 400.545 51.106)" fill="#23A6F0"/>
<circle cx="3.55896" cy="3.55896" r="3.55896" transform="matrix(-0.707107 0.707107 0.707107 0.707107 391.485 50.0991)" fill="#23A6F0"/>
<circle cx="4.27075" cy="4.27075" r="4.27075" transform="matrix(-0.707107 0.707107 0.707107 0.707107 380.413 49.0925)" fill="#23A6F0"/>
<circle cx="2.13538" cy="2.13538" r="2.13538" transform="matrix(0.707107 0.707107 0.707107 -0.707107 430.751 77.4333)" fill="#23A6F0"/>
<circle cx="2.84717" cy="2.84717" r="2.84717" transform="matrix(0.707107 0.707107 0.707107 -0.707107 429.745 84.4797)" fill="#23A6F0"/>
<circle cx="3.55896" cy="3.55896" r="3.55896" transform="matrix(0.707107 0.707107 0.707107 -0.707107 428.738 93.5396)" fill="#23A6F0"/>
<circle cx="4.27075" cy="4.27075" r="4.27075" transform="matrix(0.707107 0.707107 0.707107 -0.707107 427.732 104.612)" fill="#23A6F0"/>
<circle cx="433.771" cy="33.2185" r="2.13538" transform="rotate(-45 433.771 33.2185)" fill="#23A6F0"/>
<circle cx="433.771" cy="26.1721" r="2.84717" transform="rotate(-45 433.771 26.1721)" fill="#23A6F0"/>
<circle cx="433.771" cy="17.1124" r="3.55896" transform="rotate(-45 433.771 17.1124)" fill="#23A6F0"/>
<circle cx="433.771" cy="6.03955" r="4.27075" transform="rotate(-45 433.771 6.03955)" fill="#23A6F0"/>
</svg>
