<svg width="53" height="46" viewBox="0 0 53 46" fill="none" xmlns="http://www.w3.org/2000/svg">
<path fill-rule="evenodd" clip-rule="evenodd" d="M18.6945 15.4739C18.33 15.6983 17.6433 17.1071 17.954 18.3431C18.416 20.1813 20.0592 20.8987 20.0592 20.8987C20.0592 20.8987 22.6301 24.2932 22.6301 26.2672C22.6301 28.2413 22.6301 29.0082 21.9411 30.6551C21.2522 32.3019 7.72859 34.2761 7.15446 43.9848H26.8381L46.7378 43.9869C46.1637 34.2782 32.6401 32.304 31.9511 30.6572C31.2622 29.0103 31.2622 28.2434 31.2622 26.2693C31.2622 24.2953 33.833 20.9009 33.833 20.9009C33.833 20.9009 35.4763 20.1834 35.9383 18.3452C36.2489 17.1092 35.5623 15.7004 35.1978 15.476C36.1721 12.5032 38.1179 2.25444 27.0542 1.88506C27.005 1.87807 26.9561 1.87932 26.9074 1.88076C15.7743 2.25232 17.7202 12.5011 18.6945 15.4739Z" stroke="#1F2B6C" stroke-width="2" stroke-linecap="round" stroke-linejoin="round"/>
<path fill-rule="evenodd" clip-rule="evenodd" d="M1.94614 37.5162C5.19404 35.2388 9.24355 34.3552 9.57353 33.5664C10.1189 32.2627 10.1189 31.6555 10.1189 30.0928C10.1189 28.5301 8.08378 25.843 8.08378 25.843C8.08378 25.843 6.7829 25.2751 6.41718 23.8199C6.17126 22.8414 6.71483 21.7262 7.00337 21.5485C6.2321 19.1952 4.6917 11.082 13.505 10.7878C13.5435 10.7867 13.5822 10.7857 13.6212 10.7912C15.5219 10.8547 16.9376 11.2865 17.9813 11.9478C18.1173 13.4169 18.4392 14.695 18.6945 15.4738C18.33 15.6983 17.6433 17.107 17.954 18.3431C18.416 20.1813 20.0592 20.8987 20.0592 20.8987C20.0592 20.8987 20.1128 20.9695 20.2046 21.0965C20.1579 21.2646 20.1116 21.4167 20.0679 21.5502C20.3564 21.7279 20.9 22.8431 20.6541 23.8216C20.2884 25.2767 18.9875 25.8447 18.9875 25.8447C18.9875 25.8447 16.9523 28.5318 16.9523 30.0945C16.9523 31.3973 16.9523 32.036 17.2684 32.9678C13.0676 34.794 7.51781 37.8405 7.15447 43.9848H26.8381L46.7378 43.9869C46.3677 37.7278 40.6154 34.6833 36.3899 32.8688C36.6814 31.9762 36.6814 31.3373 36.6814 30.0691C36.6814 28.5064 34.6463 25.8192 34.6463 25.8192C34.6463 25.8192 33.3454 25.2513 32.9797 23.7961C32.7338 22.8177 33.2773 21.7024 33.5659 21.5248C33.5477 21.4692 33.529 21.4105 33.5101 21.3487C33.7067 21.0676 33.833 20.9008 33.833 20.9008C33.833 20.9008 35.4763 20.1834 35.9383 18.3452C36.2489 17.1092 35.5623 15.7004 35.1978 15.476C35.4632 14.6661 35.8008 13.3162 35.9277 11.7732C36.9517 11.1958 38.3018 10.823 40.0675 10.7641C40.106 10.7629 40.1447 10.7619 40.1837 10.7675C48.9421 11.0599 47.4017 19.1731 46.6304 21.5264C46.9189 21.7041 47.4625 22.8193 47.2166 23.7978C46.8509 25.253 45.55 25.8209 45.55 25.8209C45.55 25.8209 43.5148 28.508 43.5148 30.0708C43.5148 31.6335 43.5148 32.2406 44.0602 33.5443C44.399 34.3542 48.6587 35.264 51.9461 37.6796V44.0961L40.0126 44.0948H29.2017C29.2023 44.1033 29.2028 44.1118 29.2033 44.1203L13.4501 44.1186H1.94614V37.5162Z" stroke="#1F2B6C" stroke-width="2" stroke-linecap="round" stroke-linejoin="round"/>
</svg>
